<mxfile host="app.diagrams.net" modified="2023-09-06T01:41:13.115Z" agent="Mozilla/5.0 (Windows NT 10.0; Win64; x64) AppleWebKit/537.36 (KHTML, like Gecko) Chrome/116.0.0.0 Safari/537.36 Edg/116.0.1938.69" version="21.7.2" etag="AUiezN4FEhq0oIYKuN-Z" type="github">
  <diagram name="第 1 页" id="MtZj8XzmW5dAHRNHB2fe">
    <mxGraphModel>
      <root>
        <mxCell id="0" />
        <mxCell id="1" parent="0" />
      </root>
    </mxGraphModel>
  </diagram>
</mxfile>
